<?xml version="1.0" encoding="UTF-8"?>
<svg width="110px" height="48px" viewBox="0 0 110 48" version="1.1" xmlns="http://www.w3.org/2000/svg" xmlns:xlink="http://www.w3.org/1999/xlink">
    <title>Airi - Clean, Minial eCommerce Theme</title>
    <desc>https://la-studioweb.com/go/airi/link</desc>
    <g stroke="none" stroke-width="1" fill="none" fill-rule="evenodd">
        <g transform="translate(-1.000000, -18.000000)" fill="#000000">
            <g transform="translate(1.000000, 18.000000)">
                <g>
                    <path d="M17.0175781,21.6875 C17.0175781,20.0273354 16.6220743,18.7187548 15.8310547,17.7617188 C15.0400351,16.8046827 13.8046959,16.3261719 12.125,16.3261719 C11.3437461,16.3261719 10.5625039,16.448241 9.78125,16.6923828 C8.99999609,16.9365247 8.35547129,17.3027319 7.84765625,17.7910156 C8.96094307,18.1621112 9.830075,18.7431601 10.4550781,19.5341797 C11.0800812,20.3251993 11.3925781,21.3164003 11.3925781,22.5078125 C11.3925781,23.3281291 11.1923848,24.0654264 10.7919922,24.7197266 C10.3915996,25.3740267 9.82031621,25.8915997 9.078125,26.2724609 C8.33593379,26.6533222 7.48633291,26.84375 6.52929688,26.84375 C5.24022793,26.84375 4.20996479,26.4043013 3.43847656,25.5253906 C2.66698833,24.64648 2.28125,23.5429754 2.28125,22.2148438 C2.28125,20.1445209 3.39452012,18.4648502 5.62109375,17.1757812 C8.06251221,15.8281183 11.1093567,15.1542969 14.7617188,15.1542969 C18.8633018,15.1542969 21.7831944,16.0527254 23.5214844,17.8496094 C24.3613323,18.6894573 24.9277329,19.7343688 25.2207031,20.984375 C25.5136733,22.2343812 25.6601562,23.9824106 25.6601562,26.2285156 L25.6601562,42.546875 C25.6601562,43.5234424 25.7529288,44.2119121 25.9384766,44.6123047 C26.1240244,45.0126973 26.4511695,45.2128906 26.9199219,45.2128906 C27.5644563,45.2128906 28.3066364,44.8710972 29.1464844,44.1875 L29.7617188,45.2128906 C28.8437454,45.9746132 27.8476616,46.5312482 26.7734375,46.8828125 C25.6992134,47.2343768 24.4101638,47.4101562 22.90625,47.4101562 C20.8749898,47.4101562 19.4101607,46.960942 18.5117188,46.0625 C17.6132768,45.164058 17.1640625,43.9921947 17.1640625,42.546875 C16.1874951,44.1679769 14.908211,45.383785 13.3261719,46.1943359 C11.7441327,47.0048869 10.0546965,47.4101562 8.2578125,47.4101562 C5.97264482,47.4101562 4.14160845,46.8095763 2.76464844,45.6083984 C1.38768843,44.4072206 0.69921875,42.7324326 0.69921875,40.5839844 C0.69921875,38.4941302 1.38280566,36.7656318 2.75,35.3984375 C4.11719434,34.0312432 6.23631377,32.8203178 9.10742188,31.765625 C9.41992344,31.6484369 10.4355383,31.2626986 12.1542969,30.6083984 C13.8730555,29.9540983 15.1132774,29.2851597 15.875,28.6015625 C16.6367226,27.9179653 17.0175781,27.1660197 17.0175781,26.3457031 L17.0175781,21.6875 Z M17.0175781,28.8066406 C16.7636706,29.2363303 16.3486357,29.6806618 15.7724609,30.1396484 C15.1962862,30.5986351 14.3710991,31.1601529 13.296875,31.8242188 C12.0273374,32.7031294 11.0312536,33.6943304 10.3085938,34.7978516 C9.58593389,35.9013727 9.22460938,37.2734293 9.22460938,38.9140625 C9.22460938,40.4765703 9.56640283,41.6435508 10.25,42.4150391 C10.9335972,43.1865273 11.8320257,43.5722656 12.9453125,43.5722656 C14.5273517,43.5722656 15.88476,42.7519613 17.0175781,41.1113281 L17.0175781,28.8066406 Z M39.2832031,0.505859375 C40.9433677,0.505859375 42.2665966,0.916011523 43.2529297,1.73632812 C44.2392627,2.55664473 44.7324219,3.67968037 44.7324219,5.10546875 C44.7324219,6.55078848 44.2392627,7.68358965 43.2529297,8.50390625 C42.2665966,9.32422285 40.9433677,9.734375 39.2832031,9.734375 C37.5839759,9.734375 36.2460986,9.32422285 35.2695312,8.50390625 C34.2929639,7.68358965 33.8046875,6.55078848 33.8046875,5.10546875 C33.8046875,3.67968037 34.2929639,2.55664473 35.2695312,1.73632812 C36.2460986,0.916011523 37.5839759,0.505859375 39.2832031,0.505859375 Z M43.9707031,41.4335938 C43.9707031,42.5468806 44.097655,43.4160125 44.3515625,44.0410156 C44.60547,44.6660187 45.0058566,45.1054675 45.5527344,45.359375 C46.0996121,45.6132825 46.8515577,45.7402344 47.8085938,45.7402344 L47.8085938,47 C43.8241988,46.8437492 41.1679754,46.765625 39.8398438,46.765625 C38.5703062,46.765625 35.7871309,46.8437492 31.4902344,47 L31.4902344,45.7402344 C32.4472704,45.7402344 33.2040988,45.6132825 33.7607422,45.359375 C34.3173856,45.1054675 34.7177722,44.6660187 34.9619141,44.0410156 C35.2060559,43.4160125 35.328125,42.5468806 35.328125,41.4335938 L35.328125,22.5078125 C35.328125,20.6523345 35.0449247,19.3095745 34.4785156,18.4794922 C33.9121065,17.6494099 32.9160228,17.234375 31.4902344,17.234375 L31.4902344,15.9746094 C32.759772,16.0917975 33.9999939,16.1503906 35.2109375,16.1503906 C38.7461114,16.1503906 41.6660041,15.8769559 43.9707031,15.3300781 L43.9707031,41.4335938 Z M62.8671875,20.8964844 C63.6289101,19.1972571 64.7275319,17.815435 66.1630859,16.7509766 C67.59864,15.6865181 69.2246003,15.1542969 71.0410156,15.1542969 C72.2519592,15.1542969 73.267574,15.4179661 74.0878906,15.9453125 C74.9082072,16.4726589 75.5136699,17.151363 75.9042969,17.9814453 C76.2949238,18.8115276 76.4902344,19.7050733 76.4902344,20.6621094 C76.4902344,22.1464918 76.0605512,23.3574172 75.2011719,24.2949219 C74.3417926,25.2324266 73.2089914,25.7011719 71.8027344,25.7011719 C70.43554,25.7011719 69.3564493,25.3544957 68.5654297,24.6611328 C67.7744101,23.96777 67.3789062,23.0351621 67.3789062,21.8632812 C67.3789062,19.9492092 68.2578037,18.3867248 70.015625,17.1757812 C69.7617175,17.1171872 69.5175793,17.0878906 69.2832031,17.0878906 C69.0097643,17.0878906 68.6972674,17.1367183 68.3457031,17.234375 C67.330073,17.3906258 66.4023479,17.8740194 65.5625,18.6845703 C64.7226521,19.4951212 64.063479,20.4667912 63.5849609,21.5996094 C63.1064429,22.7324275 62.8671875,23.8359321 62.8671875,24.9101562 L62.8671875,40.8183594 C62.8671875,42.6738374 63.3164018,43.9580042 64.2148438,44.6708984 C65.1132857,45.3837926 66.5488183,45.7402344 68.5214844,45.7402344 L68.5214844,47 C63.5214594,46.8437492 60.3378975,46.765625 58.9707031,46.765625 C57.7011655,46.765625 54.839866,46.8437492 50.3867188,47 L50.3867188,45.7402344 C51.3437548,45.7402344 52.1005832,45.6132825 52.6572266,45.359375 C53.21387,45.1054675 53.6142566,44.6660187 53.8583984,44.0410156 C54.1025403,43.4160125 54.2246094,42.5468806 54.2246094,41.4335938 L54.2246094,22.5078125 C54.2246094,20.6523345 53.9414091,19.3095745 53.375,18.4794922 C52.8085909,17.6494099 51.8125071,17.234375 50.3867188,17.234375 L50.3867188,15.9746094 C51.6562563,16.0917975 52.8964783,16.1503906 54.1074219,16.1503906 C57.6425958,16.1503906 60.5624885,15.8769559 62.8671875,15.3300781 L62.8671875,20.8964844 Z M86.1875,0.505859375 C87.8476646,0.505859375 89.1708935,0.916011523 90.1572266,1.73632812 C91.1435596,2.55664473 91.6367188,3.67968037 91.6367188,5.10546875 C91.6367188,6.55078848 91.1435596,7.68358965 90.1572266,8.50390625 C89.1708935,9.32422285 87.8476646,9.734375 86.1875,9.734375 C84.4882728,9.734375 83.1503955,9.32422285 82.1738281,8.50390625 C81.1972607,7.68358965 80.7089844,6.55078848 80.7089844,5.10546875 C80.7089844,3.67968037 81.1972607,2.55664473 82.1738281,1.73632812 C83.1503955,0.916011523 84.4882728,0.505859375 86.1875,0.505859375 Z M90.875,41.4335938 C90.875,42.5468806 91.0019519,43.4160125 91.2558594,44.0410156 C91.5097669,44.6660187 91.9101535,45.1054675 92.4570312,45.359375 C93.003909,45.6132825 93.7558546,45.7402344 94.7128906,45.7402344 L94.7128906,47 C90.7284957,46.8437492 88.0722723,46.765625 86.7441406,46.765625 C85.474603,46.765625 82.6914277,46.8437492 78.3945312,47 L78.3945312,45.7402344 C79.3515673,45.7402344 80.1083957,45.6132825 80.6650391,45.359375 C81.2216825,45.1054675 81.6220691,44.6660187 81.8662109,44.0410156 C82.1103528,43.4160125 82.2324219,42.5468806 82.2324219,41.4335938 L82.2324219,22.5078125 C82.2324219,20.6523345 81.9492216,19.3095745 81.3828125,18.4794922 C80.8164034,17.6494099 79.8203196,17.234375 78.3945312,17.234375 L78.3945312,15.9746094 C79.6640688,16.0917975 80.9042908,16.1503906 82.1152344,16.1503906 C85.6504083,16.1503906 88.570301,15.8769559 90.875,15.3300781 L90.875,41.4335938 Z M103.941406,38.5917969 C105.523445,38.5917969 106.773433,39.0068318 107.691406,39.8369141 C108.60938,40.6669963 109.068359,41.7949147 109.068359,43.2207031 C109.068359,44.6464915 108.60938,45.7744099 107.691406,46.6044922 C106.773433,47.4345745 105.523445,47.8496094 103.941406,47.8496094 C102.378898,47.8496094 101.138676,47.4345745 100.220703,46.6044922 C99.3027298,45.7744099 98.84375,44.6464915 98.84375,43.2207031 C98.84375,41.7949147 99.3027298,40.6669963 100.220703,39.8369141 C101.138676,39.0068318 102.378898,38.5917969 103.941406,38.5917969 Z"></path>
                </g>
            </g>
        </g>
    </g>
</svg>